<?xml version="1.0" encoding="UTF-8" standalone="no"?>
<!-- Uploaded to: SVG Repo, www.svgrepo.com, Generator: SVG Repo Mixer Tools -->

<svg
   fill="#000000"
   width="481.08038"
   height="477.58163"
   viewBox="0 -3.5 60.135048 59.697704"
   version="1.1"
   id="svg3"
   sodipodi:docname="robot-svgrepo-com.svg"
   inkscape:version="1.1.1 (3bf5ae0d25, 2021-09-20)"
   xmlns:inkscape="http://www.inkscape.org/namespaces/inkscape"
   xmlns:sodipodi="http://sodipodi.sourceforge.net/DTD/sodipodi-0.dtd"
   xmlns="http://www.w3.org/2000/svg"
   xmlns:svg="http://www.w3.org/2000/svg">
  <defs
     id="defs7" />
  <sodipodi:namedview
     id="namedview5"
     pagecolor="#ffffff"
     bordercolor="#cccccc"
     borderopacity="1"
     inkscape:pageshadow="0"
     inkscape:pageopacity="1"
     inkscape:pagecheckerboard="0"
     showgrid="false"
     inkscape:zoom="0.515"
     inkscape:cx="29.126214"
     inkscape:cy="331.06796"
     inkscape:window-width="1920"
     inkscape:window-height="1013"
     inkscape:window-x="-9"
     inkscape:window-y="-9"
     inkscape:window-maximized="1"
     inkscape:current-layer="svg3" />
  <path
     id="robot"
     d="M 10.380745,55.097478 C 10.244844,54.455654 9.5292618,54.434475 9.358485,53.83052 A 30.819382,32.894723 0 0 1 8.6807862,45.856507 C 8.3662894,43.232092 7.8148701,40.859914 7.4913538,38.24641 5.8166485,38.451793 4.282655,38.808646 3.2483668,39.695004 a 18.312312,19.545443 0 0 0 -0.8508825,7.249394 c 0.3451637,1.505075 0.6157622,3.087168 0.8508825,4.710982 0.4281472,1.2676 0.9621286,3.363795 -0.8508825,3.442098 C 1.0745575,54.817643 1.1310827,53.065466 0.8701052,51.65538 0.49487517,51.632917 0.79854697,50.885193 0.69992883,50.568131 0.32409737,50.545667 0.62716781,49.797942 0.53035366,49.480241 0.19421002,49.051503 0.33732663,48.116367 0.02042554,47.668373 a 25.0412,26.727445 0 0 1 1.01865356,-8.698628 6.5755464,7.0183361 0 0 1 4.074013,-2.716839 3.9687801,4.2360332 0 0 1 1.869537,0.361348 C 7.2231612,35.587336 6.297713,34.355677 6.4714977,32.810166 c 0.279619,-0.671346 1.2026605,-0.648241 1.5279796,-1.27081 0.240532,0.01799 0.4810641,0.03143 0.5111314,-0.179711 4.4793083,-0.112312 7.8335293,-1.424205 12.0530643,-1.811866 a 38.71064,41.31737 0 0 0 4.75532,0.182277 c -0.0072,-1.141804 -0.336142,-1.94023 -0.340953,-3.080751 H 16.489659 A 4.0968635,4.3727415 0 0 1 14.791503,26.10504 c -0.527968,0.471741 -1.262793,0.0065 -1.696953,-0.180994 -0.516544,-1.194433 -0.137705,-3.173817 0,-4.711625 v -5.979225 c 0.316298,-2.381164 0.009,-5.4259736 0.847274,-7.2526016 1.675306,-0.507684 3.867756,-0.462755 5.43302,-1.085966 0.413715,-0.223354 -0.53278,-0.5025464 -0.678903,-0.7252605 A 1.5766882,1.6828605 0 0 1 18.185412,4.9011266 C 18.30568,3.5160719 19.863724,3.6694681 20.223319,2.5462766 19.748269,2.2061103 18.775918,2.4005827 18.526366,1.8210164 17.875124,1.7285934 17.207648,1.6567097 17.167359,0.91412026 c -0.15935,-1.3176631 0.814802,-1.4242058 1.696955,-1.6308728 -0.849681,-2.23418676 1.458826,-3.30346416 3.396916,-2.53648546 0.325318,0.8439976 0.226699,2.28039786 -0.341556,2.71747956 -0.59652,0.5134586 -1.383062,0.817041 -1.864125,1.4492369 0.190621,0.34080804 0.657253,0.38509384 0.848478,0.72526024 0.112453,0.00706 0.236323,0 0.360798,0 0.403492,-0.015405 0.808789,-0.031449 0.82743,0.3651973 0.04329,1.3163797 -0.882152,1.597498 -1.188228,2.5364847 0.396275,0.6662138 1.443193,0.6315545 1.188228,1.9935037 C 28.586623,6.0371532 34.960724,5.4100912 41.957201,5.447317 a 3.1629975,3.3759901 0 0 0 1.357804,0.1803536 c 1.117273,0.7393801 2.925472,0.7432306 3.564687,1.9954278 0.089,1.480687 -0.489483,2.254726 -0.679504,3.4414546 v 13.59125 c -0.30788,0.214368 -0.132292,0.944763 -0.340353,1.268243 -0.05473,0.424887 -0.52436,0.405631 -0.678901,0.724618 -1.213485,0.266357 -1.461233,-0.495488 -2.036705,-0.906255 -0.146726,0.256729 -0.568859,0.220146 -0.991594,0.18292 a 2.7095945,2.8920555 0 0 0 -0.707165,0 1.6963529,1.8105833 0 0 0 -0.849078,0.08986 1.6915422,1.8054487 0 0 1 -0.847876,0.0905 c -1.01685,0.184204 -2.21049,0.179068 -3.225536,0.362629 -0.113645,1.266317 0.151535,2.133423 0.169576,3.262388 1.488893,0.0032 2.851507,-0.09949 4.237574,-0.201532 a 49.497303,52.830394 0 0 1 5.949562,-0.16174 c 1.593525,0.473665 3.737869,0.360705 5.262843,0.905614 0.188818,0.706004 0.08419,1.722652 0.509327,2.174496 -0.320509,0.927434 0.180399,2.112881 0,3.444023 a 9.1312011,9.746085 0 0 0 1.357803,-0.181636 c 2.011451,-0.649526 4.671134,-0.08344 5.601994,1.811868 0.155143,0.317059 0.06015,0.904329 0.340955,1.08789 0.01984,1.245778 -0.09141,2.631475 0.169575,3.623733 v 6.34314 a 12.688071,13.54247 0 0 1 -0.169575,2.897831 c 0.09201,1.125116 -0.328928,1.705325 -1.357203,1.632157 -1.24716,-0.04043 -0.852085,-2.243173 -0.679504,-3.262387 V 38.427406 c -0.446788,-1.181596 -2.040313,-1.13667 -3.633838,-1.091099 -0.497902,0.01413 -0.996405,0.02758 -1.458828,0.0045 v 14.134231 c -0.02645,1.540377 0.175588,3.330421 -0.850883,3.806654 -0.965737,-0.05778 -0.945291,-1.164269 -1.188229,-1.994144 V 50.206795 C 50.303066,44.921381 50.923638,38.46143 50.445581,33.17409 c -1.577289,-0.311284 -3.457048,-0.297806 -4.754119,-0.906897 -6.078846,-0.246458 -11.365141,-0.0199 -17.318312,0.180994 -3.01086,0.4711 -6.538867,0.392155 -9.339261,1.091101 -2.891197,0.536564 -5.155807,1.744475 -7.979654,2.355491 a 77.230664,82.431283 0 0 1 1.188228,13.953237 8.5298709,9.1042621 0 0 0 0.510531,1.993503 v 2.899115 c -0.07337,0.829235 -0.371623,1.417787 -1.190035,1.450521 h -0.03607 A 1.0336868,1.1032942 0 0 1 10.380745,55.097479 Z M 8.342838,34.077125 H 8.6837918 V 33.716421 H 8.342838 Z m 25.127188,-7.246826 c 0.481065,0.938346 -0.324117,3.244416 1.357203,2.899757 a 13.627347,14.544998 0 0 1 -0.168974,-3.080751 h -2.206282 c -0.01023,0.487143 0.173785,0.364556 0.431155,0.241326 a 0.95371001,1.0179316 0 0 1 0.380041,-0.109755 0.46723367,0.49869664 0 0 1 0.206857,0.04878 z M 16.492667,9.7956704 a 16.988786,18.132789 0 0 0 0.169575,3.6250176 c -0.08599,2.02431 0.09261,3.766217 0.170176,5.617235 v 4.348354 c 0.04871,0.317701 -0.476253,0.904327 0,1.087248 0.514138,-0.719484 1.970559,-0.431947 2.886386,-0.724618 2.408928,-0.07574 4.677148,0 6.945966,0.07509 1.737846,0.05841 3.475691,0.116173 5.277275,0.10654 0.07817,-0.256731 0.430554,-0.220146 0.781731,-0.183564 a 1.8911838,2.018534 0 0 0 0.574871,0 h 1.527379 a 7.4318413,7.9322935 0 0 0 1.349987,-0.104615 6.5545018,6.9958726 0 0 1 1.707777,-0.07637 34.36242,36.676347 0 0 1 5.772771,-0.544909 c -0.04028,-4.526138 -0.594113,-10.007308 0.33855,-13.9532366 -1.312103,-0.666212 -3.301906,-0.605881 -5.291707,-0.54555 -0.978366,0.03016 -1.95733,0.0597 -2.855117,0 -0.218883,0.009 -0.235722,0.231699 -0.509929,0.180995 -3.139545,0.152754 -6.343432,0.23619 -9.678411,0.181636 -3.291683,0.05264 -5.861167,0.874805 -9.16728,0.910105 z M 21.416359,54.011513 A 19.569694,20.887495 0 0 1 18.69955,53.468531 c 0.447389,-0.426812 1.437779,-0.27791 2.037306,-0.544267 h 2.037307 c 1.065558,-0.128363 1.963946,-0.440932 3.05536,-0.543623 0.788344,-0.0167 2.173208,-0.881865 2.717412,0 0.0944,1.732921 -1.962141,1.16555 -3.05536,1.630872 z m 17.486686,-2.71748 c -0.197838,-1.857437 1.657267,-3.116051 2.375856,-1.45052 q 0.115452,1.750252 -1.018053,2.175139 A 1.77633,1.8959458 0 0 1 40.020317,52.037273 1.350588,1.4415349 0 0 1 38.903045,51.2934 Z M 17.003198,50.387779 c -0.02226,-0.867744 0.563445,-1.0911 1.358404,-1.087248 a 2.4708664,2.6372516 0 0 0 1.016849,-0.09114 2.4654543,2.6314751 0 0 1 1.018052,-0.0905 40.280713,42.993171 0 0 0 4.075818,-0.362631 c 1.547222,0.02118 2.722222,-0.354286 4.243588,-0.361347 a 7.0590175,7.5343619 0 0 1 2.038508,-0.180984 c 0.306078,-0.459546 1.322928,-0.155322 1.697556,-0.544908 0.833445,-0.104615 1.25197,0.234907 1.358406,0.906895 -0.05593,1.026917 -1.090813,1.009588 -1.868334,1.267602 -0.304272,0.220146 -0.987384,0.03272 -1.187628,0.361989 a 1.864124,1.9896521 0 0 1 -0.576073,0 c -0.351779,-0.03594 -0.702955,-0.07189 -0.78173,0.183561 a 36.019687,38.445212 0 0 0 -5.43362,0.543624 h -3.736066 c -0.512935,0 -1.066158,0.05521 -1.576688,0.05521 -0.700549,-0.0019 -1.321123,-0.105906 -1.647042,-0.600746 z m -1.529185,-6.524774 c -0.324116,-0.777249 0.19423,-2.039073 0,-3.261104 0.230311,-0.05521 0.140711,-0.453769 0.170778,-0.724618 a 3.2393665,3.4575018 0 0 0 0.676496,-1.268245 17.761493,18.957533 0 0 1 5.264046,-3.261745 h 2.886386 c 1.955528,1.05965 2.651266,4.408042 2.036706,7.610098 a 52.76854,56.321913 0 0 0 -6.789621,1.087891 10.474574,11.179919 0 0 0 -1.933277,0.01477 c -0.38425,0.02951 -0.753466,0.05841 -1.093219,0.05841 A 2.4564344,2.6218479 0 0 1 15.473413,43.86558 Z m 1.867732,-3.986364 a 4.9086595,5.2392029 0 0 0 -0.337948,2.355491 13.303833,14.199696 0 0 0 4.073413,-0.361989 c 0.369817,-0.121947 -0.321712,-0.602672 -0.51053,-0.72526 -0.142516,-0.391512 -0.43837,-0.616793 -0.339152,-1.2676 0.920037,-0.603314 1.56346,0.449275 2.378263,0.542982 0.132892,0.401139 0.592913,0.453769 0.848478,0.724618 0.107035,0.441574 0.308482,0.342091 0.591709,0.24325 a 1.0547335,1.125758 0 0 1 0.595917,-0.06419 c 0.128083,-1.765657 -0.116655,-3.135307 -0.848478,-3.987007 h -2.886385 c -1.227917,0.806131 -2.636833,1.41907 -3.565889,2.539695 z M 4.4371968,42.776397 c -0.494895,-1.082756 0.091403,-3.135948 1.3590065,-2.356775 0.3433602,0.83437 0.4251411,1.739342 -0.1695751,2.356775 -0.3974793,0.02503 -0.553224,0.119376 -0.7540683,0.119376 a 1.0823946,1.1552819 0 0 1 -0.4353631,-0.1213 z M 54.692175,40.601259 c -0.406498,-1.563482 0.770905,-2.261144 1.867733,-1.631514 0.284429,0.302939 0.135299,1.065426 0.170177,1.631514 a 7.1101299,7.5889182 0 0 1 -1.017452,0.724618 C 55.256825,41.20778 55.066804,40.806642 54.692175,40.601259 Z m -20.71222,0.363272 c 0.03668,0.0096 -0.316903,-0.166232 -0.338549,-0.181636 -0.570663,-0.40114 -0.564651,-1.067352 -0.850281,-1.813792 a 2.5989498,2.77396 0 0 1 4.074614,-1.989653 3.2279411,3.445307 0 0 1 0.51053,1.989653 c -0.161158,1.254122 -1.543616,2.092343 -2.735454,2.092343 a 2.3067031,2.4620338 0 0 1 -0.66086,-0.09692 z m 0.847274,-2.901042 v 0.544909 c 0.276611,0.296522 1.068563,0.217578 1.022261,-0.362631 0,-0.268282 -0.236323,-0.372257 -0.484672,-0.372257 a 0.79555995,0.84913214 0 0 0 -0.536988,0.190621 z m 4.585142,2.53777 c -0.635605,-0.72141 -0.57427,-2.274622 -0.337946,-3.443382 1.074576,-1.481328 4.021096,-0.873521 4.750509,0.544266 a 2.92908,3.1263208 0 0 1 -1.359607,3.262388 c -0.328929,0.0045 -0.661465,0.01348 -0.986784,0.01348 a 4.2610268,4.5479593 0 0 1 -2.066172,-0.376759 z m 1.359007,-1.989652 c -0.139507,0.655301 1.282037,0.436438 1.188831,0 a 1.0649559,1.136669 0 0 0 -1.188831,0 z m 4.413164,0.361347 c -0.188817,-0.984557 -0.187615,-1.901082 0.340354,-2.536486 0.989187,-0.788159 2.699972,-0.08921 3.226737,0.72526 a 1.5267776,1.6295892 0 0 1 -1.647043,2.567293 c -0.819613,-0.0045 -1.633214,-0.235549 -1.920048,-0.759276 z m 2.208084,-0.542341 c 0.116054,-0.487787 -0.350575,-0.349795 -0.509928,-0.543625 -0.101628,0.466605 0.06795,0.651451 0.512936,0.540416 z M 25.323805,22.483872 a 4.1828537,4.4645222 0 0 1 -0.340954,-2.355491 2.5917338,2.7662581 0 0 1 1.019254,-1.268242 c 0.229707,-0.479441 0.995803,-0.385094 1.358406,-0.724619 0.498501,-0.01413 0.957318,0.009 1.387869,0.03143 1.076381,0.05713 1.972363,0.114248 2.855718,-0.39408 a 5.0782346,5.420197 0 0 0 2.051739,0.109755 4.938726,5.2712942 0 0 1 1.8533,0.07124 c 0.920636,0.582774 0.877341,2.992822 0.169576,3.806012 -1.036694,0.930643 -2.957945,0.918449 -4.880398,0.906255 -0.354785,0 -0.710772,-0.0045 -1.060145,0 A 15.589488,16.639268 0 0 1 27.138619,23.012715 2.8539138,3.046093 0 0 1 25.322,22.480003 Z m 1.187025,-1.449237 c 0.463626,0.40114 1.363818,0.112325 1.699962,-0.181635 v -1.268884 c -0.863512,0.164947 -1.64043,0.424244 -1.702367,1.446669 z M 32.792927,20.853 a 2.1852345,2.3323856 0 0 0 1.867733,-0.181637 v -1.2676 h -1.867733 z m -3.055358,-1.268884 c -0.08239,0.571863 0.305476,0.641824 0.168371,1.268884 h 1.022263 v -1.449237 c -0.08359,0 -0.170177,0 -0.256769,-0.0039 -0.08659,-0.0039 -0.161757,-0.0045 -0.240532,-0.0045 a 0.95431118,1.0185734 0 0 0 -0.695739,0.184846 z m -7.469726,-2.174497 a 4.926098,5.2578159 0 0 1 -2.038509,-0.904971 0.46482835,0.49612934 0 0 0 -0.337948,-0.544266 c -0.01624,-0.286254 0.07938,-0.690602 -0.170176,-0.723977 -0.02767,-1.116773 0.36561,-1.784268 0.338547,-2.901041 a 0.46482835,0.49612934 0 0 0 0.338551,-0.542982 5.0914638,5.4343173 0 0 1 1.527979,-0.906255 c 1.535196,-0.312568 3.077609,0.388945 3.567093,1.449237 0.120268,2.005698 -0.251357,3.476757 -1.019255,4.531272 a 5.0656066,5.4067188 0 0 1 -2.061361,0.54555 q -0.07337,-0.0039 -0.147325,-0.0065 z m -0.170176,-3.985724 c -0.04208,0.86197 -0.527368,1.248348 -0.678902,1.993504 a 2.8076114,2.9966728 0 0 0 2.205679,0.362631 c 0.505719,-0.55967 0.360799,-1.904291 0.170177,-2.720048 q -0.209263,-0.02054 -0.399283,-0.02054 a 2.0938323,2.2348285 0 0 0 -1.300076,0.380601 z m 13.922,2.718122 c -0.586898,-0.764411 -0.61877,-2.118017 -0.679504,-3.442739 0.312091,-2.078223 2.38187,-3.3971706 4.582738,-2.356133 0.175589,0.476233 0.674693,0.609732 0.850282,1.086608 -0.02945,0.2118 0.03608,0.32091 0.168372,0.362629 0.150332,2.645595 -1.29707,4.675683 -3.405334,4.675683 a 4.1491791,4.4285802 0 0 1 -1.51896,-0.329257 z m 0.847874,-1.268883 a 1.7143927,1.8298381 0 0 0 2.378263,-1.630231 c -0.217081,-0.550686 -0.466632,-0.770189 -0.721596,-0.770189 -0.689727,-6.42e-4 -1.411324,1.564765 -1.658469,2.396568 z"
     style="stroke-width:0.621246" />
</svg>
